<svg xmlns="http://www.w3.org/2000/svg" width="1000" height="600"><circle fill="#fff" cx="500" cy="300" r="300"/><radialGradient id="a" cx="500.018" cy="300.058" r="599.962" gradientUnits="userSpaceOnUse"><stop offset="0" stop-color="#fff"/><stop offset=".5" stop-color="#f4f5f6"/><stop offset="1" stop-color="#f4f5f6"/></radialGradient><path fill="url(#a)" d="M500.191 900c-2.232-.004-4.463-.012-6.691-.034l6.389-599.123-.376.869-37.566 597.091c-6.548-.413-13.178-.94-19.705-1.567l57.198-595.354-.174.403-88.587 591.071c-6.501-.975-13.076-2.071-19.54-3.26l107.868-586.829-139.124 580.213c-6.407-1.536-12.876-3.201-19.23-4.948l158.33-575.598-.154.355.39-1.182-.051.154.09-.368-284.242 526.172c-5.802-3.134-11.634-6.411-17.334-9.738l301.611-516.62.028-.151-328.694 499.995c-5.46-3.589-11.153-7.331-16.526-11.12l344.899-489.301v-.004l-370.43 470.258c-5.137-4.049-10.188-8.246-15.206-12.476l386.044-458.104.075-.27-409.764 437.28c-4.797-4.496-9.34-9.129-13.974-13.767l424.255-423.574v.015l-.211-.004-.143.027-.096.253.032-.072.022-.215-.019.185.04-.051.055-.15-.029.115.123-.133-.098.292.217-.332.004.006.024-.064-.027.003.042-.043-.042.009.031-.186-.005-.128h.08v.224l-.145.029-.004.037-.015.005-.029-.041-.113.106.006-.029-.049.038.015-.001-.041.017.222-.012.153.017v.004999999999999999l-.517.062-.083-.028-.426.101-.562.166.087-.072-.271.105.127-.024-.186.057-506.418 318.189c-3.484-5.547-6.93-11.235-10.239-16.909l516.387-301.196-.179.056-531.512 273.22c-3.001-5.839-5.946-11.808-8.752-17.74l539.3-255.11-552.146 225.963c-2.502-6.11-4.935-12.348-7.231-18.537l558.525-207.231-568.828 177.007c-1.969-6.321-3.854-12.755-5.605-19.12l575.965-158.456.379-.128-.082.018.521-.226-593.267 76.902c-.842-6.506-1.589-13.122-2.218-19.665l595.641-57.311.425-.201-598.269 25.919c-.282-6.527-.461-13.147-.531-19.676l599.153-6.437.203-.119-.611-.249-598.267-24.652c.27-6.545.652-13.181 1.136-19.72l596.701 44.197-.436-.177-593.088-75.573c.834-6.548 1.789-13.167 2.838-19.673l589.962 95.129-.004-.001-584.063-126.383c1.397-6.466 2.925-13 4.54-19.42l578.279 145.407-569.672-176.143c1.957-6.332 4.048-12.717 6.215-18.98l563.133 194.88-551.874-224.8c2.504-6.151 5.145-12.338 7.847-18.387l545.511 243.701.521.152-532.277-272.572c3.006-5.872 6.157-11.78 9.364-17.562l523.163 290.195.284.067-507.262-317.694c3.489-5.57 7.125-11.165 10.804-16.63l496.573 334.344.265.043-478.403-360.262c3.962-5.26 8.065-10.525 12.195-15.648l466.281 375.922.233.038-445.97-400.111c4.378-4.88 8.898-9.756 13.435-14.49l432.761 414.636.056.009-.036-.236-410.283-436.686c4.795-4.504 9.731-8.99 14.671-13.333l395.603 449.971-.099-.409-371.18-469.838c5.156-4.072 10.451-8.115 15.738-12.016l355.417 481.751-.076-.313-329.35-499.575c5.498-3.625 11.13-7.206 16.742-10.645l312.566 510.05-.036-.124-285.058-525.778c5.81-3.15 11.747-6.244 17.646-9.193l267.269 534.539-.331-.986.357.901-.045-.187-.315-.724-189.856-565.578c6.28-2.108 12.672-4.138 19-6.031l171.089 571.996-140.321-580.311c6.417-1.553 12.954-3.019 19.428-4.359l121.144 585.396-.107-.246.225.665-.002-.017.196.495.185.301-.001-.026.125.25-.034-.079.147.24.163-.337 11.715-598.979c6.535.128 13.16.366 19.691.707l-31.205 597.857.269-.64 62.503-594.734c6.538.687 13.159 1.494 19.68 2.398l-82.059 591.906 113.48-586.695c6.485 1.254 13.037 2.634 19.476 4.103l-132.807 582.3.155-.407 163.53-573.981c6.378 1.817 12.806 3.765 19.104 5.79l-182.622 568.163 212.761-557.581c6.193 2.362 12.433 4.863 18.546 7.433l-231.484 550.841 260.523-537.719c5.964 2.888 11.966 5.921 17.838 9.012l-278.52 529.187-.069.305 306.357-513.923c5.66 3.375 11.343 6.892 16.891 10.453l-323.284 503.631-.052.369 349.594-486.148c5.34 3.84 10.689 7.823 15.9 11.838l-365.506 474.39-.042.308 390.172-454.667c4.987 4.281 9.969 8.701 14.808 13.139l-404.987 441.395-.005-.146h.284l427.492-419.403c4.597 4.686 9.174 9.415 13.604 14.237l-441.047 405.166h.33l461.537-381.183c4.173 5.052 8.321 10.154 12.33 15.345l-473.797 365.838h.023l-.034.189-.098.167.385-.038.17-.075-.11.037 492.194-340.222c3.734 5.402 7.426 10.94 10.975 16.452l-502.792 323.603 519.259-296.457c3.282 5.748 6.508 11.619 9.586 17.453l-528.89 279.107-.175.04-.168.108.071-.005-.009.005.592-.155.496-.179-.375.086 542.526-250.555c2.751 5.955 5.443 12.046 8.002 18.106l-549.922 232.28 561.541-202.587c2.229 6.181 4.39 12.493 6.42 18.764l-567.16 183.669-.958.22-.284.12 1.062-.282-1.144.37 588.617-102.886c1.132 6.481 2.174 12.899 3.095 19.438l-592.141 83.227h2.073l593.661-51.71c.57 6.542 1.041 13.104 1.398 19.685l-592.57 32.025h593.457l-.002-.564.003 1.474c0 6.552-.107 13.226-.32 19.747l-566.604-18.449-21.214.108 585.967 49.878c-.562 6.592-1.239 13.257-2.016 19.803l-587.18-69.654-2.232.01 584.843 101.062c-1.127 6.535-2.38 13.128-3.721 19.599l-582.161-120.657-.894.004 575.771 151.646c-1.676 6.361-3.483 12.79-5.372 19.104l-570.301-170.561 560.32 200.935c-2.238 6.246-4.611 12.35-7.051 18.5l-554.16-219.985h-.141l541.738 249.346c-2.767 6.018-5.67 11.971-8.628 17.877l-533.382-267.223h-.182l518.561 295.385c-3.277 5.76-6.697 11.633-10.161 17.272l-508.608-312.334-.577.025 491.877 338.972c-3.717 5.392-7.585 10.816-11.496 16.11l-480.527-355.061-.359.004 461.326 380.115c-4.167 5.056-8.481 9.932-12.823 14.86l-448.614-395.348h-.222l427.236 418.6c-4.562 4.658-9.274 9.222-14.006 13.749l-413.545-432.349h-.149l390.173 453.777c-5 4.303-10.131 8.475-15.249 12.591l-374.996-466.368h-.175l350.017 485.628c-5.369 3.872-10.864 7.794-16.336 11.469l-333.742-496.765-.012.005-.072-.285.024-.052h-.047l-.034-.021.112-.083.344.437v.024l-.153.242-.124-.041.208.63-.114-.15.14.402-.062-.219 261.427 537.473c-5.915 2.877-11.969 5.699-17.991 8.386l-243.135-544.98 213.725 557.174c-6.172 2.368-12.462 4.662-18.692 6.818l-195.049-563.714-.183-.727-.218-.489.026.133-.034-.097.046.158 114.688 586.479c-6.472 1.266-13.068 2.442-19.606 3.497l-95.236-590.622-.238-.71h-.013l64.029 595.363c-6.51.699-13.143 1.207-19.713 1.695l-44.362-597.058h-.204l12.979 598.668c-4.317.092-8.672.332-12.95.332zm-.878-598.017l-.008.035.228-.626-.01.168.368-.836-.35.647.091-.246.227-.389-.19.289.169-.456-.185.234-.158.486.001-.017-.065.194.008-.014-.134.548.008-.017zm.652-1.983h.035v-.128l-.063.068.063-.074.013-.015-.013-.02.015.017.068-.076-.001-.001.018-.021-.02-.036-.022.001-.001-.002.022-.002-.051-.066v-.001l-.013.003.005-.008-.032.014.012-.011-.012.002.011-.002-.011.002.012-.006.013.001h-.013l.013.002-.013-.047.012.016-.039-.093-.001.002-.006-.013-.006-.011-.007-.013.001-.002-.179-.326v.001l-.216-.4.072.181-.159-.242.08.294.203.275-.001-.018.043.11-.016-.02.02.272.084.014.01-.019.004.01-.006.011h.003l.004-.007.005.012h-.003l-.024.038.043.003.028.071.038-.066.023.001-.017.002v.001l.002.01-.037.072.027.007-.027-.006.006.015h-.012l-.001.002.03.041-.033-.035-.04.094.037-.097-.017-.007-.074.096.07-.097-.108-.004-.004.008.049.067-.033.025.057.055.024-.021-.023.021.079.076zm.341-.636l-.008.155.044-.155h.055l.051-.264-.049.064.15-.546-.012.019.073-.378-.035.103.005-.047-.251.58.163-.273-.055.171-.111.173-.044.31.03-.042-.059.131h.053zm.515-1.765l-.039.17.033-.068.211-.741-.205.639zm145.653 584.321l-144.814-576.626 164.166 571.417c-6.407 1.841-12.918 3.593-19.352 5.209zm-336.333-12.665c-6.297-2.1-12.656-4.339-18.899-6.656l207.551-559.211-188.652 565.867zm-48.529-18.562c-6.094-2.641-12.218-5.415-18.201-8.249l255.704-540.023-.302.906-237.201 547.366zm528.923-25.664l-289.648-522.815-.064-.257 306.9 513.175c-5.641 3.374-11.423 6.704-17.188 9.897zm-736.802-123.968c-4.4-4.895-8.772-9.923-12.996-14.944l458.386-385.553.064-.012-445.454 400.509zm-32.743-39.716c-3.926-5.201-7.828-10.55-11.6-15.9l488.984-344.744.462-.085-477.846 360.729zm-107.15-232.924c-1.417-6.479-2.741-13.064-3.937-19.573l586.947-107.867-583.01 127.44zm585.932-129.36l-.037-.084-39.092-597.695c6.547-.427 13.193-.751 19.755-.964l19.374 598.743zm4.254-.336l575.895-152.938c1.707 6.429 3.324 12.959 4.808 19.409l-580.703 133.529zm-4.607-.476l-.091-.21-89.896-591.206c6.508-.99 13.128-1.885 19.677-2.66l70.31 594.076zm-.665-1.527l-238.167-546.97c6.062-2.64 12.248-5.211 18.385-7.644l219.782 554.614z"/></svg>